<mxfile host="app.diagrams.net" modified="2023-04-26T11:45:46.959Z" agent="Mozilla/5.0 (Windows NT 10.0; Win64; x64) AppleWebKit/537.36 (KHTML, like Gecko) Chrome/111.0.0.0 Safari/537.36" etag="SyD3v2G5-eJLDZggry8P" version="21.2.2" type="github">
  <diagram id="31b32b95-0358-9bc7-6ba0-a27c054ed1a7" name="Page-1">
    <mxGraphModel dx="1674" dy="1957" grid="1" gridSize="10" guides="1" tooltips="1" connect="1" arrows="1" fold="1" page="1" pageScale="1" pageWidth="827" pageHeight="1169" background="none" math="0" shadow="0">
      <root>
        <mxCell id="0" />
        <mxCell id="1" parent="0" />
        <mxCell id="2" value="" style="swimlane;shadow=0;strokeColor=#4277BB;fillColor=#FF00FF;fontColor=#4277BB;align=right;startSize=0;collapsible=0;strokeWidth=3;" parent="1" vertex="1">
          <mxGeometry x="310" y="-120" width="2180" height="1250" as="geometry" />
        </mxCell>
        <mxCell id="kn96Gr8MaaGHqpwpppDH-99" value="" style="rounded=1;whiteSpace=wrap;html=1;" parent="2" vertex="1">
          <mxGeometry x="1070" y="80" width="1040" height="690" as="geometry" />
        </mxCell>
        <mxCell id="kn96Gr8MaaGHqpwpppDH-100" value="&lt;font style=&quot;font-size: 48px;&quot;&gt;Monolith&lt;/font&gt;" style="text;html=1;align=center;verticalAlign=middle;resizable=0;points=[];autosize=1;strokeColor=none;fillColor=none;" parent="2" vertex="1">
          <mxGeometry x="400" y="10" width="200" height="70" as="geometry" />
        </mxCell>
        <mxCell id="kn96Gr8MaaGHqpwpppDH-102" value="&lt;span style=&quot;font-size: 48px;&quot;&gt;Microservices&lt;/span&gt;" style="text;html=1;align=center;verticalAlign=middle;resizable=0;points=[];autosize=1;strokeColor=none;fillColor=none;" parent="2" vertex="1">
          <mxGeometry x="1330" y="10" width="320" height="70" as="geometry" />
        </mxCell>
        <mxCell id="kn96Gr8MaaGHqpwpppDH-111" value="" style="shape=singleArrow;whiteSpace=wrap;html=1;arrowWidth=0.23333333333332387;arrowSize=0.5499999999999966;" parent="2" vertex="1">
          <mxGeometry x="930" y="360" width="140" height="60" as="geometry" />
        </mxCell>
        <mxCell id="kn96Gr8MaaGHqpwpppDH-105" value="" style="rounded=0;whiteSpace=wrap;html=1;" parent="2" vertex="1">
          <mxGeometry x="90" y="310" width="800" height="160" as="geometry" />
        </mxCell>
        <mxCell id="kn96Gr8MaaGHqpwpppDH-104" value="" style="rounded=0;whiteSpace=wrap;html=1;" parent="2" vertex="1">
          <mxGeometry x="80" y="310" width="800" height="160" as="geometry" />
        </mxCell>
        <mxCell id="kn96Gr8MaaGHqpwpppDH-98" value="" style="rounded=1;whiteSpace=wrap;html=1;" parent="2" vertex="1">
          <mxGeometry x="35" y="90" width="890" height="670" as="geometry" />
        </mxCell>
        <mxCell id="kn96Gr8MaaGHqpwpppDH-116" value="" style="rounded=0;whiteSpace=wrap;html=1;fillColor=#7F00FF;" parent="2" vertex="1">
          <mxGeometry x="90" y="320" width="800" height="170" as="geometry" />
        </mxCell>
        <mxCell id="kn96Gr8MaaGHqpwpppDH-107" value="&lt;span style=&quot;font-size: 48px;&quot;&gt;Business&lt;/span&gt;" style="text;html=1;align=center;verticalAlign=middle;resizable=0;points=[];autosize=1;strokeColor=none;fillColor=none;" parent="2" vertex="1">
          <mxGeometry x="345" y="330" width="220" height="70" as="geometry" />
        </mxCell>
        <mxCell id="kn96Gr8MaaGHqpwpppDH-117" value="" style="rhombus;whiteSpace=wrap;html=1;" parent="2" vertex="1">
          <mxGeometry x="120" y="400" width="80" height="80" as="geometry" />
        </mxCell>
        <mxCell id="kn96Gr8MaaGHqpwpppDH-118" value="" style="shape=trapezoid;perimeter=trapezoidPerimeter;whiteSpace=wrap;html=1;fixedSize=1;" parent="2" vertex="1">
          <mxGeometry x="280" y="405" width="120" height="70" as="geometry" />
        </mxCell>
        <mxCell id="kn96Gr8MaaGHqpwpppDH-119" value="" style="shape=hexagon;perimeter=hexagonPerimeter2;whiteSpace=wrap;html=1;fixedSize=1;" parent="2" vertex="1">
          <mxGeometry x="510" y="400" width="120" height="80" as="geometry" />
        </mxCell>
        <mxCell id="kn96Gr8MaaGHqpwpppDH-120" value="" style="triangle;whiteSpace=wrap;html=1;direction=north;" parent="2" vertex="1">
          <mxGeometry x="730" y="405" width="100" height="70" as="geometry" />
        </mxCell>
        <mxCell id="kn96Gr8MaaGHqpwpppDH-121" value="" style="rounded=0;whiteSpace=wrap;html=1;fillColor=#FF00FF;" parent="2" vertex="1">
          <mxGeometry x="90" y="530" width="800" height="170" as="geometry" />
        </mxCell>
        <mxCell id="kn96Gr8MaaGHqpwpppDH-108" value="&lt;span style=&quot;font-size: 48px;&quot;&gt;Persistence&lt;/span&gt;" style="text;html=1;align=center;verticalAlign=middle;resizable=0;points=[];autosize=1;strokeColor=none;fillColor=none;" parent="2" vertex="1">
          <mxGeometry x="345" y="530" width="270" height="70" as="geometry" />
        </mxCell>
        <mxCell id="kn96Gr8MaaGHqpwpppDH-122" value="" style="shape=trapezoid;perimeter=trapezoidPerimeter;whiteSpace=wrap;html=1;fixedSize=1;" parent="2" vertex="1">
          <mxGeometry x="280" y="600" width="120" height="70" as="geometry" />
        </mxCell>
        <mxCell id="kn96Gr8MaaGHqpwpppDH-123" value="" style="shape=hexagon;perimeter=hexagonPerimeter2;whiteSpace=wrap;html=1;fixedSize=1;" parent="2" vertex="1">
          <mxGeometry x="495" y="590" width="120" height="80" as="geometry" />
        </mxCell>
        <mxCell id="kn96Gr8MaaGHqpwpppDH-124" value="" style="triangle;whiteSpace=wrap;html=1;direction=north;" parent="2" vertex="1">
          <mxGeometry x="730" y="590" width="100" height="70" as="geometry" />
        </mxCell>
        <mxCell id="kn96Gr8MaaGHqpwpppDH-125" value="" style="rhombus;whiteSpace=wrap;html=1;" parent="2" vertex="1">
          <mxGeometry x="120" y="590" width="80" height="80" as="geometry" />
        </mxCell>
        <mxCell id="kn96Gr8MaaGHqpwpppDH-126" value="" style="rounded=0;whiteSpace=wrap;html=1;direction=south;fillColor=#FFB570;" parent="2" vertex="1">
          <mxGeometry x="1110" y="110" width="210" height="630" as="geometry" />
        </mxCell>
        <mxCell id="kn96Gr8MaaGHqpwpppDH-127" value="&lt;span style=&quot;font-size: 48px;&quot;&gt;Service 1&lt;/span&gt;" style="text;html=1;align=center;verticalAlign=middle;resizable=0;points=[];autosize=1;strokeColor=none;fillColor=none;" parent="2" vertex="1">
          <mxGeometry x="1110" y="130" width="220" height="70" as="geometry" />
        </mxCell>
        <mxCell id="kn96Gr8MaaGHqpwpppDH-132" value="" style="rounded=0;whiteSpace=wrap;html=1;direction=south;fillColor=#FFB570;" parent="2" vertex="1">
          <mxGeometry x="1370" y="110" width="210" height="630" as="geometry" />
        </mxCell>
        <mxCell id="kn96Gr8MaaGHqpwpppDH-133" value="&lt;span style=&quot;font-size: 48px;&quot;&gt;Service 2&lt;br&gt;&lt;/span&gt;" style="text;html=1;align=center;verticalAlign=middle;resizable=0;points=[];autosize=1;strokeColor=none;fillColor=none;" parent="2" vertex="1">
          <mxGeometry x="1370" y="130" width="220" height="70" as="geometry" />
        </mxCell>
        <mxCell id="kn96Gr8MaaGHqpwpppDH-134" value="" style="rounded=0;whiteSpace=wrap;html=1;direction=south;fillColor=#FFB570;" parent="2" vertex="1">
          <mxGeometry x="1610" y="110" width="210" height="630" as="geometry" />
        </mxCell>
        <mxCell id="kn96Gr8MaaGHqpwpppDH-135" value="&lt;span style=&quot;font-size: 48px;&quot;&gt;Service 3&lt;br&gt;&lt;/span&gt;" style="text;html=1;align=center;verticalAlign=middle;resizable=0;points=[];autosize=1;strokeColor=none;fillColor=none;" parent="2" vertex="1">
          <mxGeometry x="1605" y="130" width="220" height="70" as="geometry" />
        </mxCell>
        <mxCell id="kn96Gr8MaaGHqpwpppDH-136" value="" style="shape=trapezoid;perimeter=trapezoidPerimeter;whiteSpace=wrap;html=1;fixedSize=1;" parent="2" vertex="1">
          <mxGeometry x="1415" y="220" width="120" height="70" as="geometry" />
        </mxCell>
        <mxCell id="kn96Gr8MaaGHqpwpppDH-137" value="" style="shape=trapezoid;perimeter=trapezoidPerimeter;whiteSpace=wrap;html=1;fixedSize=1;" parent="2" vertex="1">
          <mxGeometry x="1420" y="405" width="120" height="70" as="geometry" />
        </mxCell>
        <mxCell id="kn96Gr8MaaGHqpwpppDH-139" value="" style="shape=trapezoid;perimeter=trapezoidPerimeter;whiteSpace=wrap;html=1;fixedSize=1;" parent="2" vertex="1">
          <mxGeometry x="1430" y="595" width="120" height="70" as="geometry" />
        </mxCell>
        <mxCell id="kn96Gr8MaaGHqpwpppDH-140" value="" style="shape=hexagon;perimeter=hexagonPerimeter2;whiteSpace=wrap;html=1;fixedSize=1;" parent="2" vertex="1">
          <mxGeometry x="1655" y="210" width="120" height="80" as="geometry" />
        </mxCell>
        <mxCell id="kn96Gr8MaaGHqpwpppDH-142" value="" style="shape=hexagon;perimeter=hexagonPerimeter2;whiteSpace=wrap;html=1;fixedSize=1;" parent="2" vertex="1">
          <mxGeometry x="1655" y="395" width="120" height="80" as="geometry" />
        </mxCell>
        <mxCell id="kn96Gr8MaaGHqpwpppDH-141" value="" style="shape=hexagon;perimeter=hexagonPerimeter2;whiteSpace=wrap;html=1;fixedSize=1;" parent="2" vertex="1">
          <mxGeometry x="1670" y="580" width="120" height="80" as="geometry" />
        </mxCell>
        <mxCell id="kn96Gr8MaaGHqpwpppDH-143" style="edgeStyle=orthogonalEdgeStyle;rounded=0;orthogonalLoop=1;jettySize=auto;html=1;exitX=0.5;exitY=0;exitDx=0;exitDy=0;entryX=0.25;entryY=0;entryDx=0;entryDy=0;" parent="2" source="kn96Gr8MaaGHqpwpppDH-139" target="kn96Gr8MaaGHqpwpppDH-139" edge="1">
          <mxGeometry relative="1" as="geometry" />
        </mxCell>
        <mxCell id="kn96Gr8MaaGHqpwpppDH-144" value="" style="rounded=0;whiteSpace=wrap;html=1;direction=south;fillColor=#FFB570;" parent="2" vertex="1">
          <mxGeometry x="1860" y="110" width="210" height="630" as="geometry" />
        </mxCell>
        <mxCell id="kn96Gr8MaaGHqpwpppDH-145" value="&lt;span style=&quot;font-size: 48px;&quot;&gt;Service 4&lt;br&gt;&lt;/span&gt;" style="text;html=1;align=center;verticalAlign=middle;resizable=0;points=[];autosize=1;strokeColor=none;fillColor=none;" parent="2" vertex="1">
          <mxGeometry x="1850" y="130" width="220" height="70" as="geometry" />
        </mxCell>
        <mxCell id="kn96Gr8MaaGHqpwpppDH-103" value="" style="rounded=0;whiteSpace=wrap;html=1;fillColor=#3333FF;" parent="2" vertex="1">
          <mxGeometry x="90" y="140" width="800" height="170" as="geometry" />
        </mxCell>
        <mxCell id="kn96Gr8MaaGHqpwpppDH-114" value="" style="triangle;whiteSpace=wrap;html=1;direction=north;" parent="2" vertex="1">
          <mxGeometry x="740" y="200" width="100" height="70" as="geometry" />
        </mxCell>
        <mxCell id="kn96Gr8MaaGHqpwpppDH-112" value="" style="shape=hexagon;perimeter=hexagonPerimeter2;whiteSpace=wrap;html=1;fixedSize=1;" parent="2" vertex="1">
          <mxGeometry x="510" y="195" width="120" height="80" as="geometry" />
        </mxCell>
        <mxCell id="kn96Gr8MaaGHqpwpppDH-110" value="" style="shape=trapezoid;perimeter=trapezoidPerimeter;whiteSpace=wrap;html=1;fixedSize=1;" parent="2" vertex="1">
          <mxGeometry x="290" y="210" width="120" height="70" as="geometry" />
        </mxCell>
        <mxCell id="kn96Gr8MaaGHqpwpppDH-109" value="" style="rhombus;whiteSpace=wrap;html=1;" parent="2" vertex="1">
          <mxGeometry x="120" y="205" width="80" height="80" as="geometry" />
        </mxCell>
        <mxCell id="kn96Gr8MaaGHqpwpppDH-106" value="&lt;span style=&quot;font-size: 48px;&quot;&gt;Presentation&lt;/span&gt;" style="text;html=1;align=center;verticalAlign=middle;resizable=0;points=[];autosize=1;strokeColor=none;fillColor=none;" parent="2" vertex="1">
          <mxGeometry x="345" y="125" width="290" height="70" as="geometry" />
        </mxCell>
        <mxCell id="kn96Gr8MaaGHqpwpppDH-147" value="" style="triangle;whiteSpace=wrap;html=1;direction=north;" parent="2" vertex="1">
          <mxGeometry x="1930" y="215" width="100" height="70" as="geometry" />
        </mxCell>
        <mxCell id="kn96Gr8MaaGHqpwpppDH-149" value="" style="triangle;whiteSpace=wrap;html=1;direction=north;" parent="2" vertex="1">
          <mxGeometry x="1930" y="395" width="100" height="70" as="geometry" />
        </mxCell>
        <mxCell id="kn96Gr8MaaGHqpwpppDH-148" value="" style="triangle;whiteSpace=wrap;html=1;direction=north;" parent="2" vertex="1">
          <mxGeometry x="1930" y="580" width="100" height="70" as="geometry" />
        </mxCell>
        <mxCell id="kn96Gr8MaaGHqpwpppDH-150" value="" style="rhombus;whiteSpace=wrap;html=1;" parent="2" vertex="1">
          <mxGeometry x="1175" y="220" width="80" height="80" as="geometry" />
        </mxCell>
        <mxCell id="kn96Gr8MaaGHqpwpppDH-151" value="" style="rhombus;whiteSpace=wrap;html=1;" parent="2" vertex="1">
          <mxGeometry x="1180" y="395" width="80" height="80" as="geometry" />
        </mxCell>
        <mxCell id="kn96Gr8MaaGHqpwpppDH-152" value="" style="rhombus;whiteSpace=wrap;html=1;" parent="2" vertex="1">
          <mxGeometry x="1180" y="575" width="80" height="80" as="geometry" />
        </mxCell>
        <mxCell id="kn96Gr8MaaGHqpwpppDH-154" value="" style="ellipse;whiteSpace=wrap;html=1;fillColor=#3333FF;" parent="2" vertex="1">
          <mxGeometry x="260" y="850" width="140" height="90" as="geometry" />
        </mxCell>
        <mxCell id="kn96Gr8MaaGHqpwpppDH-155" value="" style="ellipse;whiteSpace=wrap;html=1;fillColor=#9933FF;" parent="2" vertex="1">
          <mxGeometry x="260" y="960" width="140" height="90" as="geometry" />
        </mxCell>
        <mxCell id="kn96Gr8MaaGHqpwpppDH-156" value="" style="ellipse;whiteSpace=wrap;html=1;fillColor=#FF0080;" parent="2" vertex="1">
          <mxGeometry x="250" y="1070" width="140" height="90" as="geometry" />
        </mxCell>
        <mxCell id="kn96Gr8MaaGHqpwpppDH-158" value="&lt;span style=&quot;font-size: 48px;&quot;&gt;Presentation&lt;/span&gt;" style="text;html=1;align=center;verticalAlign=middle;resizable=0;points=[];autosize=1;strokeColor=none;fillColor=none;" parent="2" vertex="1">
          <mxGeometry x="480" y="850" width="290" height="70" as="geometry" />
        </mxCell>
        <mxCell id="kn96Gr8MaaGHqpwpppDH-159" value="&lt;span style=&quot;font-size: 48px;&quot;&gt;Business&lt;/span&gt;" style="text;html=1;align=center;verticalAlign=middle;resizable=0;points=[];autosize=1;strokeColor=none;fillColor=none;" parent="2" vertex="1">
          <mxGeometry x="480" y="970" width="220" height="70" as="geometry" />
        </mxCell>
        <mxCell id="kn96Gr8MaaGHqpwpppDH-160" value="&lt;span style=&quot;font-size: 48px;&quot;&gt;Persistence&lt;/span&gt;" style="text;html=1;align=center;verticalAlign=middle;resizable=0;points=[];autosize=1;strokeColor=none;fillColor=none;" parent="2" vertex="1">
          <mxGeometry x="480" y="1080" width="270" height="70" as="geometry" />
        </mxCell>
        <mxCell id="kn96Gr8MaaGHqpwpppDH-161" value="&lt;span style=&quot;font-size: 48px;&quot;&gt;Functions&lt;br&gt;&lt;br&gt;&lt;/span&gt;" style="text;html=1;align=center;verticalAlign=middle;resizable=0;points=[];autosize=1;strokeColor=none;fillColor=none;" parent="2" vertex="1">
          <mxGeometry x="1060" y="840" width="230" height="130" as="geometry" />
        </mxCell>
        <mxCell id="kn96Gr8MaaGHqpwpppDH-162" value="" style="rhombus;whiteSpace=wrap;html=1;" parent="2" vertex="1">
          <mxGeometry x="1344" y="830" width="80" height="80" as="geometry" />
        </mxCell>
        <mxCell id="kn96Gr8MaaGHqpwpppDH-163" value="" style="shape=trapezoid;perimeter=trapezoidPerimeter;whiteSpace=wrap;html=1;fixedSize=1;" parent="2" vertex="1">
          <mxGeometry x="1324" y="940" width="120" height="70" as="geometry" />
        </mxCell>
        <mxCell id="kn96Gr8MaaGHqpwpppDH-164" value="" style="shape=hexagon;perimeter=hexagonPerimeter2;whiteSpace=wrap;html=1;fixedSize=1;" parent="2" vertex="1">
          <mxGeometry x="1320" y="1040" width="120" height="80" as="geometry" />
        </mxCell>
        <mxCell id="kn96Gr8MaaGHqpwpppDH-165" value="" style="triangle;whiteSpace=wrap;html=1;direction=north;" parent="2" vertex="1">
          <mxGeometry x="1334" y="1160" width="100" height="70" as="geometry" />
        </mxCell>
        <mxCell id="kn96Gr8MaaGHqpwpppDH-166" value="&lt;span style=&quot;font-size: 48px;&quot;&gt;Service 1&lt;/span&gt;" style="text;html=1;align=center;verticalAlign=middle;resizable=0;points=[];autosize=1;strokeColor=none;fillColor=none;" parent="2" vertex="1">
          <mxGeometry x="1550" y="850" width="220" height="70" as="geometry" />
        </mxCell>
        <mxCell id="kn96Gr8MaaGHqpwpppDH-167" value="&lt;span style=&quot;font-size: 48px;&quot;&gt;Service 2&lt;/span&gt;" style="text;html=1;align=center;verticalAlign=middle;resizable=0;points=[];autosize=1;strokeColor=none;fillColor=none;" parent="2" vertex="1">
          <mxGeometry x="1550" y="950" width="220" height="70" as="geometry" />
        </mxCell>
        <mxCell id="kn96Gr8MaaGHqpwpppDH-168" value="&lt;span style=&quot;font-size: 48px;&quot;&gt;Service 3&lt;/span&gt;" style="text;html=1;align=center;verticalAlign=middle;resizable=0;points=[];autosize=1;strokeColor=none;fillColor=none;" parent="2" vertex="1">
          <mxGeometry x="1555" y="1060" width="220" height="70" as="geometry" />
        </mxCell>
        <mxCell id="kn96Gr8MaaGHqpwpppDH-169" value="&lt;span style=&quot;font-size: 48px;&quot;&gt;Service 4&lt;/span&gt;" style="text;html=1;align=center;verticalAlign=middle;resizable=0;points=[];autosize=1;strokeColor=none;fillColor=none;" parent="2" vertex="1">
          <mxGeometry x="1550" y="1170" width="220" height="70" as="geometry" />
        </mxCell>
        <mxCell id="kn96Gr8MaaGHqpwpppDH-153" value="&lt;font style=&quot;font-size: 48px;&quot;&gt;Layers&lt;/font&gt;" style="text;html=1;align=center;verticalAlign=middle;resizable=0;points=[];autosize=1;strokeColor=none;fillColor=none;" parent="1" vertex="1">
          <mxGeometry x="355" y="738" width="170" height="70" as="geometry" />
        </mxCell>
      </root>
    </mxGraphModel>
  </diagram>
</mxfile>
